<svg height='451' width='451'  fill="#000000" xmlns="http://www.w3.org/2000/svg" xmlns:xlink="http://www.w3.org/1999/xlink" version="1.1" x="0px" y="0px" viewBox="0 0 90 90" enable-background="new 0 0 90 90" xml:space="preserve"><g><path d="M25.8,41.9c0-4.9-4-8.9-8.9-8.9c-4.9,0-8.9,4-8.9,8.9c0,1.5,0.4,3,1.1,4.3h0l7.9,13.7l7.9-13.7h0   C25.4,44.9,25.8,43.5,25.8,41.9z M16.8,45.1c-1.9,0-3.4-1.5-3.4-3.4c0-1.9,1.5-3.4,3.4-3.4c1.9,0,3.4,1.5,3.4,3.4   C20.2,43.6,18.7,45.1,16.8,45.1z"></path><path d="M81,41.9c0-4.9-4-8.9-8.9-8.9c-4.9,0-8.9,4-8.9,8.9c0,1.5,0.4,3,1.1,4.3h0l7.9,13.7L80,46.2h0C80.7,44.9,81,43.5,81,41.9z    M72.1,45.1c-1.9,0-3.4-1.5-3.4-3.4c0-1.9,1.5-3.4,3.4-3.4c1.9,0,3.4,1.5,3.4,3.4C75.5,43.6,74,45.1,72.1,45.1z"></path><g><g><path fill-rule="evenodd" clip-rule="evenodd" d="M33.7,40.5c-0.4,0-0.7,0-1,0c-0.2,0-0.4,0-0.5-0.1c-0.2-0.1-0.2-0.4-0.4-0.5     c0.2-0.1,0.3-0.2,0.5-0.3c0.4-0.1,0.9-0.1,1.3-0.2c-0.4-0.7-0.8-1.4-1.2-2.1c-0.3-0.5-0.6-1-0.9-1.6c-0.2-0.5-0.1-0.6,0.4-0.6     c0.4,0,0.8,0,1.2,0c0.5,0,0.8,0.2,1.1,0.5c0.6,0.9,1.3,1.7,1.9,2.6c0.1,0.1,0.3,0.2,0.4,0.2c2.3-0.2,4.5-0.4,6.8-0.5     c0,0,0.1,0,0.1-0.1c-0.1-0.6-0.3-1.2-0.4-1.8c-0.8-3.4-1.6-6.7-2.5-10.1c-0.1-0.3,0-0.4,0.3-0.4c1.2,0,2,0.5,2.5,1.6     c1.5,2.7,3,5.5,4.5,8.2c0.3,0.6,0.7,1.2,1,1.8c0.1,0.2,0.2,0.3,0.5,0.3c2.1-0.2,4.2-0.2,6.3,0.3c0.6,0.1,1.2,0.4,1.7,0.8     c0.7,0.5,0.7,1.2,0,1.7c-0.6,0.4-1.3,0.7-1.9,0.9c-1.6,0.5-3.2,0.5-4.9,0.5c-4.3,0.1-8.5-0.2-12.8-0.4c-0.2,0-0.3,0-0.5,0     c-0.5-0.1-0.9,0.1-1.1,0.5c-0.4,0.7-0.9,1.4-1.4,2.1c-0.4,0.6-0.9,0.9-1.6,0.8c-0.2,0-0.5,0-0.7-0.1c-0.5-0.1-0.6-0.3-0.4-0.8     c0.5-1,1-1.9,1.5-2.9C33.6,40.8,33.6,40.6,33.7,40.5z"></path><path fill-rule="evenodd" clip-rule="evenodd" d="M48.9,42.8c-1,2-1.9,4-2.8,6c-0.6,1.3-1.2,2.5-1.8,3.8c-0.4,1-1.7,1.4-2.4,1.4     c-0.4,0-0.5-0.2-0.5-0.6c0.1-0.4,0.2-0.7,0.2-1.1c0.6-3.1,1.3-6.2,1.9-9.4c0-0.1,0-0.2,0.1-0.3C45.3,42.7,47.1,42.8,48.9,42.8z"></path></g></g><g><path d="M68.7,61h-5.4v-2.4h5.4V61z M57.9,61h-5.4v-2.4h5.4V61z M47.2,61h-5.4v-2.4h5.4V61z M36.4,61H31v-2.4h5.4V61z M25.6,61    h-5.4v-2.4h5.4V61z"></path></g></g></svg>